<svg width="8" height="10" viewBox="0 0 8 10" fill="none" xmlns="http://www.w3.org/2000/svg">
<path d="M0.59731 9.59106V0.50055H4.0078C4.7023 0.50055 5.25832 0.593564 5.67584 0.77959C6.09751 0.961483 6.42615 1.24466 6.66179 1.62911C6.90155 2.00943 7.02144 2.40836 7.02144 2.82589C7.02144 3.21448 6.91602 3.58033 6.70519 3.92344C6.49436 4.26656 6.17605 4.54353 5.75025 4.75437C6.30007 4.91559 6.72173 5.19049 7.01524 5.57908C7.31288 5.96767 7.4617 6.42654 7.4617 6.95568C7.4617 7.38148 7.37076 7.77834 7.18886 8.14626C7.0111 8.51004 6.78994 8.79115 6.52537 8.98958C6.2608 9.18801 5.92801 9.33889 5.52702 9.44224C5.13017 9.54146 4.64236 9.59106 4.06361 9.59106H0.59731ZM1.80028 4.3203H3.76597C4.29925 4.3203 4.68163 4.28516 4.91313 4.21489C5.21904 4.12394 5.44848 3.97305 5.60143 3.76222C5.75852 3.55139 5.83707 3.28682 5.83707 2.96851C5.83707 2.66673 5.76472 2.40216 5.62004 2.17479C5.47535 1.94329 5.26865 1.7862 4.99995 1.70352C4.73124 1.61671 4.27031 1.57331 3.61715 1.57331H1.80028V4.3203ZM1.80028 8.51831H4.06361C4.4522 8.51831 4.72504 8.50384 4.88213 8.4749C5.1591 8.4253 5.3906 8.34262 5.57663 8.22687C5.76266 8.11112 5.91561 7.94369 6.0355 7.72459C6.15538 7.50136 6.21532 7.24506 6.21532 6.95568C6.21532 6.6167 6.12851 6.32319 5.95488 6.07516C5.78126 5.82299 5.53942 5.64729 5.22938 5.54808C4.92347 5.44473 4.48114 5.39306 3.90239 5.39306H1.80028V8.51831Z" fill="#EF7F1A"/>
</svg>
